<svg width="83" height="19" viewBox="0 0 83 19" fill="none" xmlns="http://www.w3.org/2000/svg">
<path d="M1.22727 15V6.27273H2.56818V15H1.22727ZM1.90909 4.81818C1.64773 4.81818 1.42235 4.72917 1.23295 4.55114C1.04735 4.37311 0.954545 4.15909 0.954545 3.90909C0.954545 3.65909 1.04735 3.44508 1.23295 3.26705C1.42235 3.08902 1.64773 3 1.90909 3C2.17045 3 2.39394 3.08902 2.57955 3.26705C2.76894 3.44508 2.86364 3.65909 2.86364 3.90909C2.86364 4.15909 2.76894 4.37311 2.57955 4.55114C2.39394 4.72917 2.17045 4.81818 1.90909 4.81818ZM6.36506 9.75V15H5.02415V6.27273H6.3196V7.63636H6.43324C6.63778 7.19318 6.94839 6.83712 7.36506 6.56818C7.78172 6.29545 8.3196 6.15909 8.97869 6.15909C9.5696 6.15909 10.0866 6.2803 10.5298 6.52273C10.973 6.76136 11.3177 7.125 11.5639 7.61364C11.8101 8.09848 11.9332 8.71212 11.9332 9.45455V15H10.5923V9.54545C10.5923 8.85985 10.4143 8.32576 10.0582 7.94318C9.70218 7.55682 9.21354 7.36364 8.59233 7.36364C8.1643 7.36364 7.78172 7.45644 7.4446 7.64205C7.11127 7.82765 6.84801 8.09848 6.65483 8.45455C6.46165 8.81061 6.36506 9.24242 6.36506 9.75ZM15.3608 15.0909C15.0805 15.0909 14.84 14.9905 14.6392 14.7898C14.4384 14.589 14.3381 14.3485 14.3381 14.0682C14.3381 13.7879 14.4384 13.5473 14.6392 13.3466C14.84 13.1458 15.0805 13.0455 15.3608 13.0455C15.6411 13.0455 15.8816 13.1458 16.0824 13.3466C16.2831 13.5473 16.3835 13.7879 16.3835 14.0682C16.3835 14.2538 16.3362 14.4242 16.2415 14.5795C16.1506 14.7348 16.0275 14.8598 15.8722 14.9545C15.7206 15.0455 15.5502 15.0909 15.3608 15.0909Z" fill="white"/>
<path d="M18.5284 15V6.27273H20.8352V7.8125H20.9375C21.1193 7.30114 21.4223 6.89773 21.8466 6.60227C22.2708 6.30682 22.7784 6.15909 23.3693 6.15909C23.9678 6.15909 24.4773 6.30871 24.8977 6.60795C25.3182 6.90341 25.5985 7.30492 25.7386 7.8125H25.8295C26.0076 7.3125 26.3295 6.91288 26.7955 6.61364C27.2652 6.31061 27.8201 6.15909 28.4602 6.15909C29.2746 6.15909 29.9356 6.41856 30.4432 6.9375C30.9545 7.45265 31.2102 8.18371 31.2102 9.13068V15H28.7955V9.60795C28.7955 9.12311 28.6667 8.75947 28.4091 8.51705C28.1515 8.27462 27.8295 8.15341 27.4432 8.15341C27.0038 8.15341 26.661 8.29356 26.4148 8.57386C26.1686 8.85038 26.0455 9.21591 26.0455 9.67045V15H23.6989V9.55682C23.6989 9.12879 23.5758 8.78788 23.3295 8.53409C23.0871 8.2803 22.767 8.15341 22.3693 8.15341C22.1004 8.15341 21.858 8.22159 21.642 8.35795C21.4299 8.49053 21.2614 8.67803 21.1364 8.92045C21.0114 9.15909 20.9489 9.43939 20.9489 9.76136V15H18.5284ZM37.0994 15.1705C36.2017 15.1705 35.429 14.9886 34.7812 14.625C34.1373 14.2576 33.6411 13.7386 33.2926 13.0682C32.9441 12.3939 32.7699 11.5966 32.7699 10.6761C32.7699 9.77841 32.9441 8.99053 33.2926 8.3125C33.6411 7.63447 34.1316 7.10606 34.7642 6.72727C35.4006 6.34848 36.1468 6.15909 37.0028 6.15909C37.5786 6.15909 38.1146 6.25189 38.6108 6.4375C39.1108 6.61932 39.5464 6.89394 39.9176 7.26136C40.2926 7.62879 40.5843 8.09091 40.7926 8.64773C41.0009 9.20076 41.1051 9.84848 41.1051 10.5909V11.2557H33.7358V9.75568H38.8267C38.8267 9.4072 38.7509 9.09848 38.5994 8.82955C38.4479 8.56061 38.2377 8.35038 37.9688 8.19886C37.7036 8.04356 37.3949 7.96591 37.0426 7.96591C36.6752 7.96591 36.3494 8.05114 36.0653 8.22159C35.785 8.38826 35.5653 8.61364 35.4062 8.89773C35.2472 9.17803 35.1657 9.49053 35.1619 9.83523V11.2614C35.1619 11.6932 35.2415 12.0663 35.4006 12.3807C35.5634 12.6951 35.7926 12.9375 36.0881 13.108C36.3835 13.2784 36.7339 13.3636 37.1392 13.3636C37.4081 13.3636 37.6544 13.3258 37.8778 13.25C38.1013 13.1742 38.2926 13.0606 38.4517 12.9091C38.6108 12.7576 38.732 12.572 38.8153 12.3523L41.054 12.5C40.9403 13.0379 40.7074 13.5076 40.3551 13.9091C40.0066 14.3068 39.5559 14.6174 39.0028 14.8409C38.4536 15.0606 37.8191 15.1705 37.0994 15.1705ZM42.6847 15V6.27273H44.9915V7.8125H45.0938C45.2756 7.30114 45.5786 6.89773 46.0028 6.60227C46.4271 6.30682 46.9347 6.15909 47.5256 6.15909C48.1241 6.15909 48.6335 6.30871 49.054 6.60795C49.4744 6.90341 49.7547 7.30492 49.8949 7.8125H49.9858C50.1638 7.3125 50.4858 6.91288 50.9517 6.61364C51.4214 6.31061 51.9763 6.15909 52.6165 6.15909C53.4309 6.15909 54.0919 6.41856 54.5994 6.9375C55.1108 7.45265 55.3665 8.18371 55.3665 9.13068V15H52.9517V9.60795C52.9517 9.12311 52.8229 8.75947 52.5653 8.51705C52.3078 8.27462 51.9858 8.15341 51.5994 8.15341C51.16 8.15341 50.8172 8.29356 50.571 8.57386C50.3248 8.85038 50.2017 9.21591 50.2017 9.67045V15H47.8551V9.55682C47.8551 9.12879 47.732 8.78788 47.4858 8.53409C47.2434 8.2803 46.9233 8.15341 46.5256 8.15341C46.2566 8.15341 46.0142 8.22159 45.7983 8.35795C45.5862 8.49053 45.4176 8.67803 45.2926 8.92045C45.1676 9.15909 45.1051 9.43939 45.1051 9.76136V15H42.6847ZM61.2216 15.1705C60.339 15.1705 59.5758 14.983 58.9318 14.608C58.2917 14.2292 57.7973 13.7027 57.4489 13.0284C57.1004 12.3504 56.9261 11.5644 56.9261 10.6705C56.9261 9.76894 57.1004 8.98106 57.4489 8.30682C57.7973 7.62879 58.2917 7.10227 58.9318 6.72727C59.5758 6.34848 60.339 6.15909 61.2216 6.15909C62.1042 6.15909 62.8655 6.34848 63.5057 6.72727C64.1496 7.10227 64.6458 7.62879 64.9943 8.30682C65.3428 8.98106 65.517 9.76894 65.517 10.6705C65.517 11.5644 65.3428 12.3504 64.9943 13.0284C64.6458 13.7027 64.1496 14.2292 63.5057 14.608C62.8655 14.983 62.1042 15.1705 61.2216 15.1705ZM61.233 13.2955C61.6345 13.2955 61.9697 13.1818 62.2386 12.9545C62.5076 12.7235 62.7102 12.4091 62.8466 12.0114C62.9867 11.6136 63.0568 11.161 63.0568 10.6534C63.0568 10.1458 62.9867 9.69318 62.8466 9.29545C62.7102 8.89773 62.5076 8.58333 62.2386 8.35227C61.9697 8.12121 61.6345 8.00568 61.233 8.00568C60.8277 8.00568 60.4867 8.12121 60.2102 8.35227C59.9375 8.58333 59.7311 8.89773 59.5909 9.29545C59.4545 9.69318 59.3864 10.1458 59.3864 10.6534C59.3864 11.161 59.4545 11.6136 59.5909 12.0114C59.7311 12.4091 59.9375 12.7235 60.2102 12.9545C60.4867 13.1818 60.8277 13.2955 61.233 13.2955ZM67.0909 15V6.27273H69.4375V7.79545H69.5284C69.6875 7.25379 69.9545 6.8447 70.3295 6.56818C70.7045 6.28788 71.1364 6.14773 71.625 6.14773C71.7462 6.14773 71.8769 6.1553 72.017 6.17045C72.1572 6.18561 72.2803 6.20644 72.3864 6.23295V8.38068C72.2727 8.34659 72.1155 8.31629 71.9148 8.28977C71.714 8.26326 71.5303 8.25 71.3636 8.25C71.0076 8.25 70.6894 8.32765 70.4091 8.48295C70.1326 8.63447 69.9129 8.84659 69.75 9.11932C69.5909 9.39205 69.5114 9.70644 69.5114 10.0625V15H67.0909ZM75.3977 18.2727C75.0909 18.2727 74.803 18.2481 74.5341 18.1989C74.2689 18.1534 74.0492 18.0947 73.875 18.0227L74.4205 16.2159C74.7045 16.303 74.9602 16.3504 75.1875 16.358C75.4186 16.3655 75.6174 16.3125 75.7841 16.1989C75.9545 16.0852 76.0928 15.892 76.1989 15.6193L76.3409 15.25L73.2102 6.27273H75.7557L77.5625 12.6818H77.6534L79.4773 6.27273H82.0398L78.6477 15.9432C78.4848 16.4129 78.2633 16.822 77.983 17.1705C77.7064 17.5227 77.3561 17.7936 76.9318 17.983C76.5076 18.1761 75.9962 18.2727 75.3977 18.2727Z" fill="#14B8A6"/>
</svg>
